<svg width="38" height="20" viewBox="0 0 38 20" fill="none" xmlns="http://www.w3.org/2000/svg">
<path d="M12.2249 15.308H4.65886L3.35886 19H0.264859L6.73886 0.903999H10.1709L16.6449 19H13.5249L12.2249 15.308ZM11.3929 12.89L8.45486 4.492L5.49086 12.89H11.3929ZM19.4718 9.926C19.4718 8.158 19.8791 6.572 20.6938 5.168C21.5258 3.764 22.6438 2.672 24.0478 1.892C25.4691 1.09467 27.0204 0.695999 28.7018 0.695999C30.6258 0.695999 32.3331 1.17267 33.8238 2.126C35.3318 3.062 36.4238 4.39667 37.0998 6.13H33.5378C33.0698 5.17667 32.4198 4.466 31.5878 3.998C30.7558 3.53 29.7938 3.296 28.7018 3.296C27.5058 3.296 26.4398 3.56467 25.5038 4.102C24.5678 4.63933 23.8311 5.41067 23.2938 6.416C22.7738 7.42133 22.5138 8.59133 22.5138 9.926C22.5138 11.2607 22.7738 12.4307 23.2938 13.436C23.8311 14.4413 24.5678 15.2213 25.5038 15.776C26.4398 16.3133 27.5058 16.582 28.7018 16.582C29.7938 16.582 30.7558 16.348 31.5878 15.88C32.4198 15.412 33.0698 14.7013 33.5378 13.748H37.0998C36.4238 15.4813 35.3318 16.816 33.8238 17.752C32.3331 18.688 30.6258 19.156 28.7018 19.156C27.0031 19.156 25.4518 18.766 24.0478 17.986C22.6438 17.1887 21.5258 16.088 20.6938 14.684C19.8791 13.28 19.4718 11.694 19.4718 9.926Z" fill="#F2361C"/>
</svg>
