<svg width="20" height="22" viewBox="0 0 20 22" fill="none" xmlns="http://www.w3.org/2000/svg">
<path fill-rule="evenodd" clip-rule="evenodd" d="M6.25 3.66667C6.25 1.64162 7.92893 0 10 0C12.0711 0 13.75 1.64162 13.75 3.66667C13.75 5.69171 12.0711 7.33333 10 7.33333C7.92893 7.33333 6.25 5.69171 6.25 3.66667ZM11.25 3.66667C11.25 2.99165 10.6904 2.44444 10 2.44444C9.30964 2.44444 8.75 2.99165 8.75 3.66667C8.75 4.34168 9.30964 4.88889 10 4.88889C10.6904 4.88889 11.25 4.34168 11.25 3.66667ZM18.75 9.77778C19.4404 9.77778 20 10.325 20 11C20 11.6268 19.5175 12.1434 18.8958 12.214L18.75 12.2222H1.25C0.559644 12.2222 0 11.675 0 11C0 10.3732 0.48255 9.8566 1.10422 9.786L1.25 9.77778H18.75ZM10 14.6667C7.92893 14.6667 6.25 16.3083 6.25 18.3333C6.25 20.3584 7.92893 22 10 22C12.0711 22 13.75 20.3584 13.75 18.3333C13.75 16.3083 12.0711 14.6667 10 14.6667ZM10 17.1111C10.6904 17.1111 11.25 17.6583 11.25 18.3333C11.25 19.0083 10.6904 19.5556 10 19.5556C9.30964 19.5556 8.75 19.0083 8.75 18.3333C8.75 17.6583 9.30964 17.1111 10 17.1111Z" fill="#3648EC"/>
</svg>
