<svg width="24" height="14" viewBox="0 0 24 14" fill="none" xmlns="http://www.w3.org/2000/svg">
<path fill-rule="evenodd" clip-rule="evenodd" d="M1.71429 0H22.2857C23.2323 0 24 0.545163 24 1.21739V2.43478C24 3.10701 23.2323 3.65217 22.2857 3.65217H1.71429C0.767679 3.65217 0 3.10701 0 2.43478V1.21739C0 0.545163 0.767679 0 1.71429 0ZM1.71429 10.3478H22.2857C23.2323 10.3478 24 10.893 24 11.5652V12.7826C24 13.4548 23.2323 14 22.2857 14H1.71429C0.767679 14 0 13.4548 0 12.7826V11.5652C0 10.893 0.767679 10.3478 1.71429 10.3478Z" fill="#3648EC"/>
</svg>
