<svg width="16" height="16" viewBox="0 0 16 16" fill="none" xmlns="http://www.w3.org/2000/svg">
<path d="M1.84331 0.239662L1.95098 0.334735L8 6.38286L14.049 0.334735C14.4953 -0.111578 15.219 -0.111578 15.6653 0.334735C16.0772 0.746717 16.1089 1.39498 15.7603 1.84331L15.6653 1.95098L9.61714 8L15.6653 14.049C16.1116 14.4953 16.1116 15.219 15.6653 15.6653C15.2533 16.0772 14.605 16.1089 14.1567 15.7603L14.049 15.6653L8 9.61714L1.95098 15.6653C1.50467 16.1116 0.781049 16.1116 0.334735 15.6653C-0.0772466 15.2533 -0.108937 14.605 0.239662 14.1567L0.334735 14.049L6.38286 8L0.334735 1.95098C-0.111578 1.50467 -0.111578 0.781049 0.334735 0.334735C0.712385 -0.0429148 1.28858 -0.101015 1.72732 0.160435L1.84331 0.239662Z" fill="#3648EC"/>
</svg>
