<svg width="22" height="22" viewBox="0 0 22 22" fill="none" xmlns="http://www.w3.org/2000/svg">
<path fill-rule="evenodd" clip-rule="evenodd" d="M0 4.27778C0 1.91523 1.91523 0 4.27778 0C6.64033 0 8.55556 1.91523 8.55556 4.27778C8.55556 6.64033 6.64033 8.55556 4.27778 8.55556C1.91523 8.55556 0 6.64033 0 4.27778ZM6.11111 4.27778C6.11111 3.26526 5.2903 2.44444 4.27778 2.44444C3.26526 2.44444 2.44444 3.26526 2.44444 4.27778C2.44444 5.2903 3.26526 6.11111 4.27778 6.11111C5.2903 6.11111 6.11111 5.2903 6.11111 4.27778ZM18.6913 1.5802C19.1686 1.1029 19.9425 1.1029 20.4198 1.5802C20.8604 2.02079 20.8943 2.71408 20.5215 3.19354L20.4198 3.30869L3.30869 20.4198C2.83138 20.8971 2.05751 20.8971 1.5802 20.4198C1.13961 19.9792 1.10572 19.2859 1.47853 18.8065L1.5802 18.6913L18.6913 1.5802ZM17.7222 13.4444C15.3597 13.4444 13.4444 15.3597 13.4444 17.7222C13.4444 20.0848 15.3597 22 17.7222 22C20.0848 22 22 20.0848 22 17.7222C22 15.3597 20.0848 13.4444 17.7222 13.4444ZM17.7222 15.8889C18.7347 15.8889 19.5556 16.7097 19.5556 17.7222C19.5556 18.7347 18.7347 19.5556 17.7222 19.5556C16.7097 19.5556 15.8889 18.7347 15.8889 17.7222C15.8889 16.7097 16.7097 15.8889 17.7222 15.8889Z" fill="#F2361C"/>
</svg>
