<svg width="24" height="24" viewBox="0 0 24 24" fill="none" xmlns="http://www.w3.org/2000/svg">
<path d="M12 0C12.7693 0 13.4033 0.57906 13.4899 1.32507L13.5 1.5V10.5H22.5C23.3284 10.5 24 11.1716 24 12C24 12.7693 23.4209 13.4033 22.6749 13.4899L22.5 13.5H13.5V22.5C13.5 23.3284 12.8284 24 12 24C11.2307 24 10.5967 23.4209 10.5101 22.6749L10.5 22.5V13.5H1.5C0.671573 13.5 0 12.8284 0 12C0 11.2307 0.57906 10.5967 1.32507 10.5101L1.5 10.5H10.5V1.5C10.5 0.671573 11.1716 0 12 0Z" fill="#3648EC"/>
</svg>
