<svg width="26" height="24" viewBox="0 0 26 24" fill="none" xmlns="http://www.w3.org/2000/svg">
<path fill-rule="evenodd" clip-rule="evenodd" d="M19.8979 1.49819C15.2913 -1.08758 9.55567 -0.268208 5.83052 3.50783L2.36365 6.81511V2.38908L2.3557 2.24914C2.28743 1.65233 1.7879 1.18909 1.18182 1.18909C0.52912 1.18909 0 1.72634 0 2.38908L0 9.58633L0 9.58906L0.00791364 9.72835C0.00252073 9.68117 -0.000114415 9.63374 0 9.58633M4.16617 8.38833L7.47477 5.23158L7.7219 4.98984C10.7279 2.15204 15.1687 1.58589 18.7544 3.5986C22.4397 5.66722 24.3335 9.96128 23.3991 14.1304C22.4647 18.2995 18.9275 21.3387 14.7235 21.5844C10.5194 21.83 6.66215 19.223 5.26287 15.1903C5.04598 14.5652 4.3711 14.237 3.75549 14.4572C3.13987 14.6775 2.81664 15.3627 3.03353 15.9878C4.78264 21.0287 9.60426 24.2875 14.8593 23.9804C20.1143 23.6733 24.5359 19.8744 25.7038 14.6629C26.8718 9.45153 24.5046 4.08396 19.8979 1.49819" fill="#313136"/>
</svg>
